<svg id="Capa_1" enable-background="new 0 0 512 512" height="512" viewBox="0 0 512 512" width="512" xmlns="http://www.w3.org/2000/svg"><g><g><path d="m416.796 297.887s-66.468 113.796-160.796 113.796-160.796-113.796-160.796-113.796 66.468-113.796 160.796-113.796 160.796 113.796 160.796 113.796z" fill="#b2f0fb"/></g><g fill="#020288"><path d="m476.566 44.91h-441.132c-19.538 0-35.434 16.01-35.434 35.688v350.805c0 19.678 15.896 35.688 35.434 35.688h441.132c19.539 0 35.434-16.01 35.434-35.688v-350.805c0-19.678-15.896-35.688-35.434-35.688zm-456.566 35.688c0-8.65 6.924-15.688 15.434-15.688h441.132c8.51 0 15.434 7.037 15.434 15.688v39.766h-472zm472 350.804c0 8.65-6.924 15.688-15.434 15.688h-441.132c-8.51 0-15.434-7.037-15.434-15.688v-291.039h472z"/><path d="m82.894 82.637h-13.788c-5.523 0-10 4.478-10 10s4.477 10 10 10h13.787c5.523 0 10-4.478 10-10 .001-5.523-4.477-10-9.999-10z"/><path d="m139.958 82.637h-13.788c-5.523 0-10 4.478-10 10s4.477 10 10 10h13.787c5.523 0 10-4.478 10-10 .001-5.523-4.477-10-9.999-10z"/><path d="m197.021 82.637h-13.788c-5.523 0-10 4.478-10 10s4.477 10 10 10h13.788c5.523 0 10-4.478 10-10 0-5.523-4.477-10-10-10z"/><path d="m442.894 82.637h-48.936c-5.523 0-10 4.478-10 10s4.477 10 10 10h48.936c5.523 0 10-4.478 10-10 0-5.523-4.477-10-10-10z"/><path d="m256 376.289c43.231 0 78.402-35.171 78.402-78.402s-35.171-78.402-78.402-78.402-78.402 35.171-78.402 78.402 35.171 78.402 78.402 78.402zm0-136.805c32.203 0 58.402 26.199 58.402 58.402s-26.199 58.403-58.402 58.403-58.402-26.199-58.402-58.402 26.199-58.403 58.402-58.403z"/><path d="m277.255 298.447h6.319c5.523 0 10-4.478 10-10s-4.477-10-10-10h-6.319c-5.523 0-10 4.478-10 10 0 5.523 4.477 10 10 10z"/></g></g></svg>